<?xml version="1.0" standalone="no"?>
<!DOCTYPE svg PUBLIC "-//W3C//DTD SVG 20010904//EN"
 "http://www.w3.org/TR/2001/REC-SVG-20010904/DTD/svg10.dtd">
<svg version="1.0" xmlns="http://www.w3.org/2000/svg"
 width="400.000000pt" height="400.000000pt" viewBox="0 0 400.000000 400.000000"
 preserveAspectRatio="xMidYMid meet">

<g transform="translate(0.000000,400.000000) scale(0.100000,-0.100000)"
fill="#000000" stroke="none">
<path d="M1785 3270 c-181 -37 -386 -118 -448 -176 -15 -14 -27 -21 -27 -17 0
16 -114 -105 -148 -157 -72 -110 -95 -168 -118 -300 -31 -170 2 -364 84 -500
38 -62 39 -66 23 -87 -11 -16 -27 -23 -51 -23 -83 -1 -149 -56 -176 -147 -19
-62 -18 -109 5 -176 30 -92 135 -207 189 -207 38 0 24 33 -28 70 -62 44 -110
127 -116 203 -5 65 21 143 57 170 28 20 107 33 125 20 7 -5 14 -62 17 -143 20
-463 216 -831 537 -1007 112 -61 182 -78 325 -78 78 0 146 6 170 14 74 24 145
53 145 60 0 4 6 8 13 8 24 0 124 72 190 137 84 82 178 219 217 314 17 43 35
86 40 97 5 11 15 37 22 58 8 26 23 44 43 54 45 24 142 102 168 137 60 78 92
194 76 273 -7 38 -1 49 15 27 9 -12 17 -13 36 -6 84 33 142 184 100 262 -5 9
-38 29 -72 44 -35 14 -209 87 -388 162 -179 75 -338 136 -355 137 -75 1 -266
-16 -271 -24 -8 -14 -24 -11 -24 5 0 16 25 21 177 37 143 14 110 25 675 -212
103 -44 189 -79 192 -79 9 0 54 90 72 142 21 63 24 210 5 277 -45 159 -163
298 -311 369 -98 46 -177 62 -312 62 -53 0 -98 4 -100 8 -10 26 -239 158 -252
145 -3 -4 -6 -2 -6 3 0 5 -19 15 -42 22 -142 41 -339 50 -473 22z m-166 -852
c-12 -85 -10 -163 5 -183 12 -17 20 -17 132 -6 139 14 250 15 363 5 l81 -7 0
71 c0 39 4 73 8 76 17 11 70 -60 85 -114 l16 -55 68 -20 68 -20 -110 -6 c-132
-8 -252 -43 -247 -71 3 -16 -7 -18 -98 -18 -77 0 -105 4 -116 15 -19 19 -54
20 -54 1 0 -11 -48 -15 -254 -21 -140 -4 -260 -5 -267 -2 -14 5 119 71 204
102 47 17 47 17 47 63 0 71 20 173 43 214 11 20 23 35 27 33 4 -2 3 -28 -1
-57z m823 8 c14 -20 8 -58 -14 -97 -12 -22 -25 -39 -28 -39 -3 0 -18 12 -32
28 -24 24 -25 29 -12 46 8 11 14 30 14 42 0 12 5 24 11 26 22 7 54 4 61 -6z
m88 -32 c0 -10 6 -13 18 -10 10 4 27 -1 38 -9 16 -12 17 -16 4 -24 -8 -6 -11
-13 -6 -18 4 -4 12 0 17 10 12 21 41 23 33 2 -4 -8 -1 -15 5 -15 6 0 11 4 11
9 0 5 13 4 29 -2 17 -6 27 -15 24 -20 -3 -5 3 -8 13 -7 25 3 64 -10 64 -21 0
-5 7 -9 16 -9 9 0 12 -5 8 -11 -5 -8 1 -10 18 -6 17 5 31 0 46 -14 12 -11 26
-17 31 -14 14 8 81 -27 81 -42 0 -7 -4 -13 -10 -13 -5 0 -10 -8 -10 -17 0 -14
3 -13 20 5 25 27 45 28 67 3 9 -11 23 -17 31 -13 11 4 14 1 9 -11 -3 -9 -2
-17 2 -17 5 0 11 5 13 10 5 15 58 -12 58 -29 0 -10 3 -11 13 -2 10 8 18 7 30
-2 13 -9 15 -18 8 -42 -5 -16 -10 -26 -10 -22 -1 5 -6 5 -12 1 -8 -5 -8 -9 1
-14 13 -8 0 -41 -26 -67 -17 -17 -24 -16 -40 5 -12 15 -13 15 -14 0 0 -9 6
-18 13 -21 9 -3 9 -8 1 -16 -9 -10 -17 -4 -34 24 -12 19 -19 42 -16 51 4 10 0
14 -12 12 -12 -2 -16 3 -14 16 3 14 -1 17 -13 12 -13 -4 -16 -2 -12 9 7 17 -9
30 -18 16 -7 -12 -55 7 -55 22 0 5 -7 6 -16 3 -12 -4 -15 -2 -10 9 3 8 1 15
-4 15 -6 0 -10 -4 -10 -10 0 -16 -22 -12 -36 8 -13 16 -13 16 -14 -1 0 -18
-19 -19 -33 -2 -6 6 -10 6 -14 -2 -7 -18 -30 -16 -37 2 -3 8 -12 12 -20 9 -15
-6 -76 24 -76 37 0 4 -10 9 -22 11 l-23 3 25 23 c14 13 18 22 11 22 -8 0 -21
-9 -31 -20 -16 -18 -20 -19 -44 -7 -14 8 -22 18 -18 22 4 5 -1 5 -11 2 -23 -9
-44 2 -27 13 9 5 9 9 1 14 -6 4 -11 2 -11 -3 0 -6 -7 -11 -15 -11 -8 0 -15 5
-15 10 0 6 -7 10 -15 10 -17 0 -20 27 -4 32 7 2 13 19 14 37 2 19 8 37 15 41
8 5 9 10 2 14 -12 7 -5 36 9 36 5 0 9 -7 9 -16z m20 -299 c0 -13 -29 -15 -182
-16 -101 0 -196 -2 -212 -4 -42 -6 -25 4 35 21 30 8 107 17 172 21 65 3 120
10 123 15 8 12 64 -20 64 -37z m406 -81 c105 -72 136 -192 80 -308 -32 -65
-83 -112 -183 -169 -70 -41 -73 -44 -88 -97 -49 -174 -129 -313 -255 -441
-106 -107 -203 -171 -310 -202 -79 -23 -240 -27 -320 -8 -82 20 -197 78 -262
131 -242 201 -378 500 -395 866 -7 152 -3 174 36 174 28 0 30 -2 41 -72 6 -40
15 -89 20 -108 5 -19 14 -69 20 -110 20 -127 12 -123 213 -118 190 5 226 14
285 71 33 31 33 32 28 7 -28 -136 -37 -223 -26 -230 22 -14 141 -23 152 -12
21 21 -1 41 -52 48 -52 7 -52 7 -45 38 14 66 45 263 46 291 0 24 4 19 19 -28
33 -101 58 -135 119 -165 54 -26 61 -27 222 -27 111 1 175 5 196 14 33 14 35
19 64 166 18 94 17 93 44 58 14 -17 33 -33 43 -35 17 -5 19 -1 15 36 -8 66 13
147 49 190 40 48 78 65 149 66 45 0 64 -5 95 -26z m-488 -13 l74 -1 -6 -27
c-3 -16 -8 -47 -11 -70 -4 -24 -11 -43 -16 -43 -6 0 -40 18 -77 40 -37 22 -96
49 -133 60 -79 24 -189 27 -189 6 0 -18 22 -26 75 -26 l44 0 -24 -52 c-54
-115 -18 -228 71 -228 54 0 114 97 114 185 l0 27 48 -27 c69 -40 72 -45 56
-113 -8 -31 -14 -69 -14 -83 0 -16 -7 -30 -17 -34 -10 -5 -78 -10 -151 -13
-159 -5 -209 5 -252 54 -42 48 -74 160 -74 259 l-1 80 115 5 c63 3 156 4 205
3 50 -1 123 -2 163 -2z m-589 -10 c11 -7 13 -27 8 -98 -10 -132 -44 -211 -109
-251 -40 -24 -156 -42 -277 -42 l-88 0 -7 41 c-6 37 -3 45 33 87 21 26 48 55
59 65 19 18 20 17 26 -27 13 -85 69 -137 130 -122 41 10 81 101 79 181 0 33
-2 69 -4 79 -3 15 4 21 31 28 83 22 70 63 -15 47 -109 -20 -274 -125 -330
-212 -10 -15 -20 -25 -23 -23 -2 3 -14 62 -26 131 l-22 125 260 0 c144 0 267
-4 275 -9z"/>
<path d="M1463 2139 c-47 -11 -66 -28 -53 -48 7 -12 18 -12 66 -3 73 15 175
15 247 1 111 -23 113 17 2 46 -64 16 -195 18 -262 4z"/>
<path d="M2555 2370 c-3 -5 1 -10 10 -10 9 0 13 5 10 10 -3 6 -8 10 -10 10 -2
0 -7 -4 -10 -10z"/>
<path d="M2530 2340 c0 -5 5 -10 10 -10 6 0 10 5 10 10 0 6 -4 10 -10 10 -5 0
-10 -4 -10 -10z"/>
<path d="M2606 2321 c-4 -5 -2 -12 3 -15 5 -4 12 -2 15 3 4 5 2 12 -3 15 -5 4
-12 2 -15 -3z"/>
<path d="M2656 2321 c-4 -5 -2 -12 3 -15 5 -4 12 -2 15 3 4 5 2 12 -3 15 -5 4
-12 2 -15 -3z"/>
<path d="M2505 2310 c3 -5 8 -10 11 -10 2 0 4 5 4 10 0 6 -5 10 -11 10 -5 0
-7 -4 -4 -10z"/>
<path d="M2555 2310 c4 -6 11 -8 16 -5 14 9 11 15 -7 15 -8 0 -12 -5 -9 -10z"/>
<path d="M2530 2290 c0 -5 5 -10 10 -10 6 0 10 5 10 10 0 6 -4 10 -10 10 -5 0
-10 -4 -10 -10z"/>
<path d="M2580 2290 c0 -5 5 -10 10 -10 6 0 10 5 10 10 0 6 -4 10 -10 10 -5 0
-10 -4 -10 -10z"/>
<path d="M2630 2290 c0 -5 5 -10 10 -10 6 0 10 5 10 10 0 6 -4 10 -10 10 -5 0
-10 -4 -10 -10z"/>
<path d="M2680 2290 c0 -5 5 -10 10 -10 6 0 10 5 10 10 0 6 -4 10 -10 10 -5 0
-10 -4 -10 -10z"/>
<path d="M2730 2290 c0 -5 5 -10 10 -10 6 0 10 5 10 10 0 6 -4 10 -10 10 -5 0
-10 -4 -10 -10z"/>
<path d="M2506 2271 c-4 -5 -2 -12 3 -15 5 -4 12 -2 15 3 4 5 2 12 -3 15 -5 4
-12 2 -15 -3z"/>
<path d="M2606 2271 c-4 -5 -2 -12 3 -15 5 -4 12 -2 15 3 4 5 2 12 -3 15 -5 4
-12 2 -15 -3z"/>
<path d="M2656 2271 c-4 -5 -2 -12 3 -15 5 -4 12 -2 15 3 4 5 2 12 -3 15 -5 4
-12 2 -15 -3z"/>
<path d="M2705 2270 c-3 -5 1 -10 10 -10 9 0 13 5 10 10 -3 6 -8 10 -10 10 -2
0 -7 -4 -10 -10z"/>
<path d="M2756 2271 c-4 -5 -2 -12 3 -15 5 -4 12 -2 15 3 4 5 2 12 -3 15 -5 4
-12 2 -15 -3z"/>
<path d="M2555 2260 c4 -6 11 -8 16 -5 14 9 11 15 -7 15 -8 0 -12 -5 -9 -10z"/>
<path d="M2580 2240 c0 -5 5 -10 10 -10 6 0 10 5 10 10 0 6 -4 10 -10 10 -5 0
-10 -4 -10 -10z"/>
<path d="M2630 2240 c0 -5 5 -10 10 -10 6 0 10 5 10 10 0 6 -4 10 -10 10 -5 0
-10 -4 -10 -10z"/>
<path d="M2680 2240 c0 -5 5 -10 10 -10 6 0 10 5 10 10 0 6 -4 10 -10 10 -5 0
-10 -4 -10 -10z"/>
<path d="M2730 2240 c0 -5 5 -10 10 -10 6 0 10 5 10 10 0 6 -4 10 -10 10 -5 0
-10 -4 -10 -10z"/>
<path d="M2780 2240 c0 -5 5 -10 10 -10 6 0 10 5 10 10 0 6 -4 10 -10 10 -5 0
-10 -4 -10 -10z"/>
<path d="M2830 2240 c0 -5 5 -10 10 -10 6 0 10 5 10 10 0 6 -4 10 -10 10 -5 0
-10 -4 -10 -10z"/>
<path d="M2606 2221 c-4 -5 -2 -12 3 -15 5 -4 12 -2 15 3 4 5 2 12 -3 15 -5 4
-12 2 -15 -3z"/>
<path d="M2705 2221 c-3 -5 -1 -12 5 -16 5 -3 10 1 10 9 0 18 -6 21 -15 7z"/>
<path d="M2755 2210 c4 -6 11 -8 16 -5 14 9 11 15 -7 15 -8 0 -12 -5 -9 -10z"/>
<path d="M2805 2210 c4 -6 11 -8 16 -5 14 9 11 15 -7 15 -8 0 -12 -5 -9 -10z"/>
<path d="M2860 2209 c0 -5 5 -7 10 -4 6 3 10 8 10 11 0 2 -4 4 -10 4 -5 0 -10
-5 -10 -11z"/>
<path d="M2905 2210 c4 -6 11 -8 16 -5 14 9 11 15 -7 15 -8 0 -12 -5 -9 -10z"/>
<path d="M2680 2190 c0 -5 5 -10 10 -10 6 0 10 5 10 10 0 6 -4 10 -10 10 -5 0
-10 -4 -10 -10z"/>
<path d="M2730 2190 c0 -5 5 -10 10 -10 6 0 10 5 10 10 0 6 -4 10 -10 10 -5 0
-10 -4 -10 -10z"/>
<path d="M2780 2190 c0 -5 5 -10 10 -10 6 0 10 5 10 10 0 6 -4 10 -10 10 -5 0
-10 -4 -10 -10z"/>
<path d="M2830 2190 c0 -5 5 -10 10 -10 6 0 10 5 10 10 0 6 -4 10 -10 10 -5 0
-10 -4 -10 -10z"/>
<path d="M2880 2190 c0 -5 5 -10 10 -10 6 0 10 5 10 10 0 6 -4 10 -10 10 -5 0
-10 -4 -10 -10z"/>
<path d="M2706 2171 c-4 -5 -2 -12 3 -15 5 -4 12 -2 15 3 4 5 2 12 -3 15 -5 4
-12 2 -15 -3z"/>
<path d="M2756 2171 c-4 -5 -2 -12 3 -15 5 -4 12 -2 15 3 4 5 2 12 -3 15 -5 4
-12 2 -15 -3z"/>
<path d="M2860 2164 c0 -8 5 -12 10 -9 6 4 8 11 5 16 -9 14 -15 11 -15 -7z"/>
<path d="M2805 2160 c4 -6 11 -8 16 -5 14 9 11 15 -7 15 -8 0 -12 -5 -9 -10z"/>
<path d="M3010 2159 c0 -5 5 -7 10 -4 6 3 10 8 10 11 0 2 -4 4 -10 4 -5 0 -10
-5 -10 -11z"/>
<path d="M2730 2140 c0 -5 5 -10 10 -10 6 0 10 5 10 10 0 6 -4 10 -10 10 -5 0
-10 -4 -10 -10z"/>
<path d="M2780 2140 c0 -5 5 -10 10 -10 6 0 10 5 10 10 0 6 -4 10 -10 10 -5 0
-10 -4 -10 -10z"/>
<path d="M2830 2140 c0 -5 5 -10 10 -10 6 0 10 5 10 10 0 6 -4 10 -10 10 -5 0
-10 -4 -10 -10z"/>
<path d="M2880 2140 c0 -5 5 -10 10 -10 6 0 10 5 10 10 0 6 -4 10 -10 10 -5 0
-10 -4 -10 -10z"/>
<path d="M2930 2140 c0 -5 5 -10 10 -10 6 0 10 5 10 10 0 6 -4 10 -10 10 -5 0
-10 -4 -10 -10z"/>
<path d="M2985 2140 c3 -5 8 -10 11 -10 2 0 4 5 4 10 0 6 -5 10 -11 10 -5 0
-7 -4 -4 -10z"/>
<path d="M3030 2140 c0 -5 5 -10 10 -10 6 0 10 5 10 10 0 6 -4 10 -10 10 -5 0
-10 -4 -10 -10z"/>
<path d="M2956 2121 c-4 -5 -2 -12 3 -15 5 -4 12 -2 15 3 4 5 2 12 -3 15 -5 4
-12 2 -15 -3z"/>
<path d="M3010 2121 c0 -15 29 -45 36 -38 4 3 -3 16 -15 28 -12 13 -21 17 -21
10z"/>
<path d="M3060 2109 c0 -5 5 -7 10 -4 6 3 10 8 10 11 0 2 -4 4 -10 4 -5 0 -10
-5 -10 -11z"/>
<path d="M3105 2110 c4 -6 11 -8 16 -5 14 9 11 15 -7 15 -8 0 -12 -5 -9 -10z"/>
<path d="M2985 2090 c-3 -5 -1 -10 4 -10 6 0 11 5 11 10 0 6 -2 10 -4 10 -3 0
-8 -4 -11 -10z"/>
<path d="M3080 2090 c0 -5 5 -10 10 -10 6 0 10 5 10 10 0 6 -4 10 -10 10 -5 0
-10 -4 -10 -10z"/>
<path d="M3130 2090 c0 -5 5 -10 10 -10 6 0 10 5 10 10 0 6 -4 10 -10 10 -5 0
-10 -4 -10 -10z"/>
<path d="M3185 2090 c-3 -5 -1 -10 4 -10 6 0 11 5 11 10 0 6 -2 10 -4 10 -3 0
-8 -4 -11 -10z"/>
<path d="M3110 2066 c0 -9 5 -16 10 -16 6 0 10 4 10 9 0 6 -4 13 -10 16 -5 3
-10 -1 -10 -9z"/>
<path d="M3060 2064 c0 -10 31 -36 37 -31 3 3 -2 13 -10 22 -16 15 -27 19 -27
9z"/>
<path d="M3160 2059 c0 -5 5 -7 10 -4 6 3 10 8 10 11 0 2 -4 4 -10 4 -5 0 -10
-5 -10 -11z"/>
<path d="M3135 2040 c-3 -5 1 -10 10 -10 9 0 13 5 10 10 -3 6 -8 10 -10 10 -2
0 -7 -4 -10 -10z"/>
<path d="M3107 2023 c-3 -5 5 -19 19 -32 13 -13 24 -18 24 -12 0 17 -37 54
-43 44z"/>
<path d="M3160 2009 c0 -5 5 -7 10 -4 6 3 10 8 10 11 0 2 -4 4 -10 4 -5 0 -10
-5 -10 -11z"/>
<path d="M3080 1990 c0 -5 5 -10 10 -10 6 0 10 5 10 10 0 6 -4 10 -10 10 -5 0
-10 -4 -10 -10z"/>
<path d="M1990 1123 c-81 -4 -101 -13 -80 -38 9 -11 30 -15 74 -14 82 1 111
10 111 34 0 22 -2 23 -105 18z"/>
</g>
</svg>
